<svg width="156" height="20" viewBox="0 0 156 20" fill="none" xmlns="http://www.w3.org/2000/svg">
<circle cx="10.5" cy="10" r="9" stroke="#8071F3" stroke-width="2"/>
<path d="M9.45731 11.56H11.0733C10.8493 9.496 13.3453 8.776 13.3453 6.744C13.3453 5 12.1133 4.088 10.3853 4.088C9.21731 4.088 8.27331 4.664 7.58531 5.48L8.60931 6.424C9.07331 5.912 9.60131 5.592 10.2573 5.592C11.0733 5.592 11.5533 6.104 11.5533 6.872C11.5533 8.312 9.12131 9.224 9.45731 11.56ZM9.08931 13.944C9.08931 14.664 9.60131 15.192 10.2733 15.192C10.9453 15.192 11.4733 14.664 11.4733 13.944C11.4733 13.224 10.9453 12.696 10.2733 12.696C9.60131 12.696 9.08931 13.224 9.08931 13.944Z" fill="#8071F3"/>
<path d="M29.2819 14V4.844H30.9059V8.568H32.1939L33.4399 6.356C33.6826 5.91733 33.9159 5.57667 34.1399 5.334C34.3639 5.09133 34.5973 4.92333 34.8399 4.83C35.0826 4.72733 35.3626 4.676 35.6799 4.676C35.7826 4.676 35.8899 4.68533 36.0019 4.704C36.1233 4.71333 36.2259 4.74133 36.3099 4.788L36.0439 6.258C35.9693 6.23933 35.8993 6.23 35.8339 6.23C35.7779 6.22067 35.7266 6.216 35.6799 6.216C35.4746 6.216 35.2973 6.27667 35.1479 6.398C34.9986 6.51933 34.8026 6.78533 34.5599 7.196L33.4679 9.142L36.5339 14H34.8119L32.1939 9.884H30.9059V14H29.2819ZM40.2161 9.128L39.8941 10.248H42.2321L41.9101 9.128C41.7608 8.64267 41.6161 8.14333 41.4761 7.63C41.3455 7.11667 41.2148 6.608 41.0841 6.104H41.0281C40.9068 6.61733 40.7761 7.13067 40.6361 7.644C40.5055 8.148 40.3655 8.64267 40.2161 9.128ZM37.1501 14L40.1321 4.844H42.0361L45.0181 14H43.3101L42.5961 11.522H39.5161L38.8021 14H37.1501ZM46.7968 14V4.844H48.4208V8.568H49.7088L50.9548 6.356C51.1974 5.91733 51.4308 5.57667 51.6548 5.334C51.8788 5.09133 52.1121 4.92333 52.3548 4.83C52.5974 4.72733 52.8774 4.676 53.1948 4.676C53.2974 4.676 53.4048 4.68533 53.5168 4.704C53.6381 4.71333 53.7408 4.74133 53.8248 4.788L53.5588 6.258C53.4841 6.23933 53.4141 6.23 53.3488 6.23C53.2928 6.22067 53.2414 6.216 53.1948 6.216C52.9894 6.216 52.8121 6.27667 52.6628 6.398C52.5134 6.51933 52.3174 6.78533 52.0748 7.196L50.9828 9.142L54.0488 14H52.3268L49.7088 9.884H48.4208V14H46.7968ZM59.3077 14V4.844H61.1417L62.7657 9.324C62.8684 9.61333 62.9664 9.912 63.0597 10.22C63.1624 10.5187 63.2604 10.8173 63.3537 11.116H63.4097C63.5124 10.8173 63.6104 10.5187 63.7037 10.22C63.797 9.912 63.8904 9.61333 63.9837 9.324L65.5657 4.844H67.4137V14H65.9157V9.814C65.9157 9.52467 65.925 9.212 65.9437 8.876C65.9717 8.53067 65.9997 8.18533 66.0277 7.84C66.065 7.49467 66.0977 7.182 66.1257 6.902H66.0697L65.3277 9.03L63.8297 13.146H62.8637L61.3517 9.03L60.6237 6.902H60.5677C60.5957 7.182 60.6237 7.49467 60.6517 7.84C60.689 8.18533 60.717 8.53067 60.7357 8.876C60.7637 9.212 60.7777 9.52467 60.7777 9.814V14H59.3077ZM70.3893 14V4.844H72.0133V8.386H73.1753C73.8567 8.386 74.4587 8.47933 74.9813 8.666C75.504 8.84333 75.9147 9.13267 76.2133 9.534C76.512 9.926 76.6613 10.444 76.6613 11.088C76.6613 11.7787 76.512 12.3387 76.2133 12.768C75.9147 13.1973 75.4993 13.51 74.9673 13.706C74.4447 13.902 73.8427 14 73.1613 14H70.3893ZM72.0133 12.698H73.0353C73.6887 12.698 74.188 12.5767 74.5333 12.334C74.888 12.082 75.0653 11.676 75.0653 11.116C75.0653 10.164 74.3793 9.688 73.0073 9.688H72.0133V12.698ZM78.0053 14V4.844H79.6293V14H78.0053ZM86.0585 14V4.844H88.9425C89.6238 4.844 90.2305 4.93267 90.7625 5.11C91.2945 5.28733 91.7145 5.58133 92.0225 5.992C92.3305 6.40267 92.4845 6.96267 92.4845 7.672C92.4845 8.344 92.3305 8.89933 92.0225 9.338C91.7145 9.77667 91.2992 10.1033 90.7765 10.318C90.2538 10.5327 89.6612 10.64 88.9985 10.64H87.6825V14H86.0585ZM87.6825 9.338H88.8725C90.2165 9.338 90.8885 8.78267 90.8885 7.672C90.8885 7.09333 90.7112 6.69667 90.3565 6.482C90.0112 6.258 89.4978 6.146 88.8165 6.146H87.6825V9.338ZM96.0357 9.128L95.7137 10.248H98.0517L97.7297 9.128C97.5803 8.64267 97.4357 8.14333 97.2957 7.63C97.165 7.11667 97.0343 6.608 96.9037 6.104H96.8477C96.7263 6.61733 96.5957 7.13067 96.4557 7.644C96.325 8.148 96.185 8.64267 96.0357 9.128ZM92.9697 14L95.9517 4.844H97.8557L100.838 14H99.1297L98.4157 11.522H95.3357L94.6217 14H92.9697ZM102.616 14V4.844H108.58V6.216H104.24V8.554H105.738C106.392 8.554 106.975 8.638 107.488 8.806C108.011 8.974 108.422 9.24933 108.72 9.632C109.028 10.0053 109.182 10.514 109.182 11.158C109.182 11.8207 109.038 12.362 108.748 12.782C108.459 13.202 108.058 13.51 107.544 13.706C107.04 13.902 106.457 14 105.794 14H102.616ZM104.24 12.74H105.598C106.924 12.74 107.586 12.222 107.586 11.186C107.586 10.6727 107.414 10.3087 107.068 10.094C106.732 9.87933 106.233 9.772 105.57 9.772H104.24V12.74ZM115.08 14.168C114.287 14.168 113.587 13.9767 112.98 13.594C112.373 13.202 111.897 12.6513 111.552 11.942C111.216 11.2233 111.048 10.3693 111.048 9.38C111.048 8.39067 111.216 7.546 111.552 6.846C111.897 6.146 112.373 5.60933 112.98 5.236C113.587 4.86267 114.287 4.676 115.08 4.676C115.883 4.676 116.587 4.86267 117.194 5.236C117.801 5.60933 118.272 6.146 118.608 6.846C118.953 7.546 119.126 8.39067 119.126 9.38C119.126 10.3693 118.953 11.2233 118.608 11.942C118.272 12.6513 117.801 13.202 117.194 13.594C116.587 13.9767 115.883 14.168 115.08 14.168ZM115.08 12.754C115.799 12.754 116.373 12.4507 116.802 11.844C117.231 11.228 117.446 10.4067 117.446 9.38C117.446 8.35333 117.231 7.55067 116.802 6.972C116.373 6.384 115.799 6.09 115.08 6.09C114.361 6.09 113.787 6.384 113.358 6.972C112.929 7.55067 112.714 8.35333 112.714 9.38C112.714 10.4067 112.929 11.228 113.358 11.844C113.787 12.4507 114.361 12.754 115.08 12.754ZM123.087 14V6.216H120.441V4.844H127.357V6.216H124.711V14H123.087ZM130.847 9.128L130.525 10.248H132.863L132.541 9.128C132.391 8.64267 132.247 8.14333 132.107 7.63C131.976 7.11667 131.845 6.608 131.715 6.104H131.659C131.537 6.61733 131.407 7.13067 131.267 7.644C131.136 8.148 130.996 8.64267 130.847 9.128ZM127.781 14L130.763 4.844H132.667L135.649 14H133.941L133.227 11.522H130.147L129.433 14H127.781ZM137.427 14V4.844H142.943V6.216H139.051V8.554H142.341V9.926H139.051V12.628H143.083V14H137.427ZM145.61 14V4.844H147.444L149.068 9.324C149.171 9.61333 149.269 9.912 149.362 10.22C149.465 10.5187 149.563 10.8173 149.656 11.116H149.712C149.815 10.8173 149.913 10.5187 150.006 10.22C150.1 9.912 150.193 9.61333 150.286 9.324L151.868 4.844H153.716V14H152.218V9.814C152.218 9.52467 152.228 9.212 152.246 8.876C152.274 8.53067 152.302 8.18533 152.33 7.84C152.368 7.49467 152.4 7.182 152.428 6.902H152.372L151.63 9.03L150.132 13.146H149.166L147.654 9.03L146.926 6.902H146.87C146.898 7.182 146.926 7.49467 146.954 7.84C146.992 8.18533 147.02 8.53067 147.038 8.876C147.066 9.212 147.08 9.52467 147.08 9.814V14H145.61Z" fill="#8071F3"/>
<path d="M28.1199 15.05H154.878V15.75H28.1199V15.05Z" fill="#8071F3"/>
</svg>
