<svg width="119" height="24" viewBox="0 0 119 24" fill="none" xmlns="http://www.w3.org/2000/svg">
<g clip-path="url(#clip0_1994_24323)">
<path fill-rule="evenodd" clip-rule="evenodd" d="M100.606 15.7381V12.0496C100.606 11.683 100.9 11.3857 101.262 11.3857H102.445C102.807 11.3857 103.101 11.683 103.101 12.0496V14.7673H104.103C104.317 14.7673 104.518 14.6616 104.64 14.4839L106.583 11.6703C106.706 11.4919 106.908 11.3857 107.123 11.3857H108.14C108.678 11.3857 108.989 12.0042 108.672 12.4446L106.707 15.1724C106.54 15.4035 106.539 15.717 106.704 15.9497L108.895 19.0375C109.207 19.4775 108.897 20.0905 108.361 20.0905H107.04C106.826 20.0905 106.626 19.9856 106.503 19.809L104.591 17.0701C104.469 16.8947 104.27 16.7901 104.057 16.7901H103.101V19.4259C103.101 19.7933 102.806 20.091 102.443 20.091H101.263C100.9 20.091 100.606 19.7933 100.606 19.4259V15.7381" fill="#212121"/>
<path fill-rule="evenodd" clip-rule="evenodd" d="M112.098 15.2624C112.635 15.0727 113.305 14.9777 114.11 14.9777H115.459C115.837 14.9777 116.106 14.5862 115.963 14.2316C115.88 14.027 115.758 13.8523 115.597 13.7081C115.267 13.4115 114.771 13.2627 114.11 13.2627C113.651 13.2627 113.201 13.3358 112.759 13.4815C112.545 13.5519 112.346 13.6346 112.163 13.7289C111.85 13.8904 111.466 13.7473 111.305 13.4312L111.017 12.8631C110.851 12.5369 110.975 12.1331 111.298 11.9661C111.636 11.7915 112.011 11.6465 112.422 11.5315C113.078 11.3484 113.752 11.2561 114.446 11.2561C115.778 11.2561 116.802 11.5773 117.516 12.2192C118.231 12.8608 118.588 13.8289 118.588 15.1235V19.4275C118.588 19.7936 118.294 20.0902 117.933 20.0902H116.908C116.546 20.0902 116.253 19.7933 116.253 19.4275V19.0063C115.784 19.8152 114.909 20.2198 113.63 20.2198C112.969 20.2198 112.396 20.1064 111.911 19.8798C111.426 19.6533 111.055 19.3409 110.799 18.9413C110.543 18.5424 110.415 18.089 110.415 17.582C110.415 16.7732 110.716 16.1374 111.319 15.6732C111.536 15.5062 111.796 15.3693 112.098 15.2624ZM115.39 18.2217C115.688 18.0416 115.908 17.7847 116.05 17.4509C116.08 17.3801 116.093 17.3005 116.093 17.2232V16.4497H114.382C113.359 16.4497 112.847 16.7897 112.847 17.469C112.847 17.7928 112.972 18.0494 113.223 18.2374C113.473 18.4267 113.817 18.5205 114.254 18.5205C114.68 18.5205 115.059 18.4217 115.39 18.2217Z" fill="#212121"/>
<path fill-rule="evenodd" clip-rule="evenodd" d="M0.189596 21.3165C-0.0631988 21.0638 -0.0631988 20.6538 0.189596 20.4007L20.3994 0.191355C20.6522 -0.0613436 21.0623 -0.0613436 21.3155 0.191355L23.8104 2.68527C24.0632 2.93797 24.0632 3.34836 23.8104 3.60107L3.60061 23.8105C3.34781 24.0631 2.93726 24.0631 2.68446 23.8105L0.189596 21.3165Z" fill="url(#paint0_linear_1994_24323)"/>
<path fill-rule="evenodd" clip-rule="evenodd" d="M22.3926 15.1699L23.5386 16.3292C23.7884 16.5819 23.7888 16.9919 23.539 17.2446L17.0562 23.809C16.8064 24.062 16.4007 24.062 16.1506 23.8093L13.6852 21.3154C13.4354 21.0627 13.435 20.6527 13.6848 20.4001L20.1676 13.8356C20.4174 13.5826 20.8231 13.5826 21.0733 13.8353L22.3926 15.1699Z" fill="url(#paint1_linear_1994_24323)"/>
<path fill-rule="evenodd" clip-rule="evenodd" d="M2.43844 9.94668L0.187543 7.66967C-0.0622607 7.41695 -0.0626411 7.00693 0.187163 6.75428L6.66987 0.189861C6.91969 -0.0632228 7.32539 -0.0632228 7.57558 0.189477L10.041 2.68339C10.2907 2.93609 10.2911 3.3461 10.0413 3.5988L3.55856 10.1632C3.30876 10.4163 2.90306 10.4163 2.65288 10.1636L2.43844 9.94668Z" fill="url(#paint2_linear_1994_24323)"/>
<path fill-rule="evenodd" clip-rule="evenodd" d="M45.23 9.42715V19.3644C45.23 19.7301 44.9369 20.0267 44.5753 20.0267H42.0286C41.667 20.0267 41.3739 19.7301 41.3739 19.3644V14.0357H36.8211V19.3651C36.8211 19.7305 36.5284 20.0263 36.1675 20.0263H33.5022C33.2053 20.0263 32.965 19.7828 32.965 19.4828V5.55358C32.965 5.18665 33.2593 4.88895 33.622 4.88895H36.166C36.528 4.88895 36.8215 5.18588 36.8215 5.55204V10.5183H41.3739V5.55512C41.3739 5.18703 41.669 4.88895 42.0324 4.88895H44.5715C44.9354 4.88895 45.23 5.18742 45.23 5.55512V9.42715Z" fill="#212121"/>
<path fill-rule="evenodd" clip-rule="evenodd" d="M57.7862 9.27211L61.0827 16.7219H61.9674C62.3286 16.7219 62.6214 17.0181 62.6214 17.3835V21.0494C62.6214 21.4148 62.3286 21.7109 61.9674 21.7109H60.1773C59.8161 21.7109 59.5234 21.4148 59.5234 21.0494V20.0693H50.7985V21.0486C50.7985 21.4144 50.5053 21.7109 50.1438 21.7109H48.3351C47.9731 21.7109 47.6796 21.4139 47.6796 21.0478V17.3835C47.6796 17.0181 47.9723 16.7219 48.3335 16.7219H49.1761L54.0634 5.30931C54.1669 5.06777 54.4026 4.91122 54.663 4.91122H55.4334C55.6907 4.91122 55.9242 5.06431 56.0295 5.302L57.7862 9.27211ZM52.99 16.6792H57.1629L55.0344 11.2856L52.99 16.6792Z" fill="#212121"/>
<path fill-rule="evenodd" clip-rule="evenodd" d="M87.177 18.9762L86.8983 19.6259C86.7938 19.8693 86.5569 20.0267 86.2945 20.0267H83.8128C83.3323 20.0267 83.0136 19.5228 83.2151 19.0816L89.5013 5.29662C89.6085 5.06161 89.8408 4.91122 90.0967 4.91122H90.8792C91.1354 4.91122 91.3689 5.062 91.4765 5.29739L97.7817 19.0835C97.9832 19.5239 97.6653 20.0267 97.1855 20.0267H94.7004C94.4399 20.0267 94.2038 19.8709 94.0993 19.6293L90.5895 11.5418C90.5473 11.4441 90.4104 11.4445 90.3682 11.5422L87.177 18.9762Z" fill="#212121"/>
<path fill-rule="evenodd" clip-rule="evenodd" d="M74.7195 18.7685V19.365C74.7195 19.7301 74.4267 20.0263 74.0659 20.0263H71.7899C71.4291 20.0263 71.1363 19.7301 71.1363 19.365V18.7685C67.3216 18.6404 64.1814 17.1266 64.1814 12.4783C64.1814 7.85169 67.3007 6.35934 71.1154 6.23126V5.57393C71.1154 5.20777 71.4086 4.91122 71.7706 4.91122H74.0857C74.4477 4.91122 74.7408 5.20777 74.7408 5.57393V6.23126C78.5559 6.35934 81.6752 7.85169 81.6752 12.4783C81.6752 17.1266 78.535 18.6404 74.7195 18.7685ZM71.179 15.2504V9.7279C69.5562 9.79213 68.0384 10.346 68.0384 12.4783C68.0384 14.6111 69.6407 15.1654 71.179 15.2504ZM74.6774 15.2504C76.2162 15.1657 77.8184 14.6111 77.8184 12.4783C77.8184 10.346 76.3006 9.79213 74.6774 9.7279V15.2504Z" fill="#212121"/>
</g>
<defs>
<linearGradient id="paint0_linear_1994_24323" x1="-0.000288737" y1="0.00517683" x2="24.0002" y2="0.00517683" gradientUnits="userSpaceOnUse">
<stop stop-color="#AB7AF3"/>
<stop offset="1" stop-color="#5367F3"/>
</linearGradient>
<linearGradient id="paint1_linear_1994_24323" x1="13.4978" y1="13.649" x2="23.7261" y2="13.649" gradientUnits="userSpaceOnUse">
<stop stop-color="#AB7AF3"/>
<stop offset="1" stop-color="#5367F3"/>
</linearGradient>
<linearGradient id="paint2_linear_1994_24323" x1="9.53803e-05" y1="0.0031252" x2="10.2284" y2="0.0031252" gradientUnits="userSpaceOnUse">
<stop stop-color="#AB7AF3"/>
<stop offset="1" stop-color="#5367F3"/>
</linearGradient>
<clipPath id="clip0_1994_24323">
<rect width="119" height="24" fill="white"/>
</clipPath>
</defs>
</svg>
