<svg width="18" height="18" viewBox="0 0 18 18" fill="none" xmlns="http://www.w3.org/2000/svg">
<path d="M13.9443 10.4451C14.4699 10.4842 14.9472 10.729 15.3234 11.1486L17.4599 13.4437C17.8534 13.8607 18.0368 14.3357 17.9939 14.8133C17.9512 15.2871 17.6892 15.7329 17.2338 16.0985C17.036 16.2583 16.8345 16.41 16.638 16.5544C16.3498 16.7695 16.0757 16.9702 15.8334 17.1965C15.8285 17.2039 15.8197 17.2071 15.8147 17.2145C15.1132 17.8021 14.262 18.0608 13.2827 17.988C13.1979 17.9817 13.105 17.9709 13.0163 17.9605C11.5699 17.7678 10.3131 17.1742 9.37586 16.682C6.92464 15.3716 4.83365 13.6149 3.15807 11.4626C1.77808 9.67726 0.892512 8.04112 0.357179 6.30692C0.139068 5.60054 -0.131255 4.52579 0.0716744 3.40865C0.202225 2.71653 0.565753 2.13865 1.15274 1.68593L2.71296 0.471841L2.72213 0.464768C3.17933 0.126488 3.69724 -0.0327969 4.21443 0.00561464C4.73163 0.0440261 5.20571 0.276986 5.58366 0.67729C5.83842 0.928858 6.08332 1.1952 6.31619 1.4529C6.43227 1.58559 6.55686 1.71894 6.67752 1.84809L7.74025 2.98556C8.55773 3.86054 8.46347 4.9082 7.50045 5.65094C7.37205 5.74998 7.2433 5.85286 7.1149 5.95189C6.7752 6.21747 6.42598 6.49398 6.05237 6.75704C6.26418 7.29622 6.5742 7.83495 7.04936 8.48287C8.03325 9.7851 9.08872 10.8135 10.2784 11.6308C10.3951 11.7092 10.5333 11.7854 10.6797 11.8661C10.7812 11.924 10.8869 11.9823 10.9923 12.0444L12.4411 10.9306C12.9042 10.5734 13.4228 10.4064 13.9443 10.4451Z" fill="black" fill-opacity="0.87"/>
</svg>
